<svg width="366" height="340" viewBox="0 0 366 340" fill="none" xmlns="http://www.w3.org/2000/svg">
<path d="M183 0C176.066 0 169.903 3.0952 165 8C160.097 12.9048 157 19.0636 157 26C157 35.6508 162.183 44.4492 170 49V78H105C69.0536 78 39 108.038 39 144V170H0V275H39V340H327V275H366V170H327V144C327 108.038 296.946 78 261 78H196V49C203.817 44.4492 209 35.6638 209 26C209 19.0636 205.903 12.9048 201 8C196.097 3.0952 189.934 0 183 0V0ZM105 105H261C282.803 105 301 122.188 301 144V314H275V248H92V314H65V144C65 122.188 83.1969 105 105 105ZM131 157C124.066 157 116.903 160.095 112 165C107.097 169.905 105 176.064 105 183C105 189.936 107.097 197.095 112 202C116.903 206.905 124.066 209 131 209C137.934 209 144.097 206.905 149 202C153.903 197.095 157 189.936 157 183C157 176.064 153.903 169.905 149 165C144.097 160.095 137.934 157 131 157V157ZM235 157C228.066 157 221.903 160.095 217 165C212.097 169.905 209 176.064 209 183C209 189.936 212.097 197.095 217 202C221.903 206.905 228.066 209 235 209C241.934 209 249.097 206.905 254 202C258.903 197.095 261 189.936 261 183C261 176.064 258.903 169.905 254 165C249.097 160.095 241.934 157 235 157V157ZM26 196H39V248H26V196ZM327 196H340V248H327V196ZM118 275H144V314H118V275ZM170 275H196V314H170V275ZM222 275H248V314H222V275Z" fill="white" fill-opacity="0.19"/>
</svg>
