<svg width="46" height="57" viewBox="0 0 46 57" fill="none" xmlns="http://www.w3.org/2000/svg">
<path d="M9.91667 0C11.4196 0 12.8609 0.597022 13.9236 1.65973C14.9863 2.72243 15.5833 4.16377 15.5833 5.66667C15.5833 7.16956 14.9863 8.6109 13.9236 9.67361C12.8609 10.7363 11.4196 11.3333 9.91667 11.3333C8.41377 11.3333 6.97243 10.7363 5.90973 9.67361C4.84702 8.6109 4.25 7.16956 4.25 5.66667C4.25 4.16377 4.84702 2.72243 5.90973 1.65973C6.97243 0.597022 8.41377 0 9.91667 0ZM5.66667 14.1667H14.1667C15.6696 14.1667 17.1109 14.7637 18.1736 15.8264C19.2363 16.8891 19.8333 18.3304 19.8333 19.8333V35.4167H15.5833V56.6667H4.25V35.4167H0V19.8333C0 18.3304 0.597022 16.8891 1.65973 15.8264C2.72243 14.7637 4.16377 14.1667 5.66667 14.1667ZM35.4167 0C36.9196 0 38.3609 0.597022 39.4236 1.65973C40.4863 2.72243 41.0833 4.16377 41.0833 5.66667C41.0833 7.16956 40.4863 8.6109 39.4236 9.67361C38.3609 10.7363 36.9196 11.3333 35.4167 11.3333C33.9138 11.3333 32.4724 10.7363 31.4097 9.67361C30.347 8.6109 29.75 7.16956 29.75 5.66667C29.75 4.16377 30.347 2.72243 31.4097 1.65973C32.4724 0.597022 33.9138 0 35.4167 0ZM31.1667 14.1667H39.6667C41.1696 14.1667 42.6109 14.7637 43.6736 15.8264C44.7363 16.8891 45.3333 18.3304 45.3333 19.8333V35.4167H41.0833V56.6667H29.75V35.4167H25.5V19.8333C25.5 18.3304 26.097 16.8891 27.1597 15.8264C28.2224 14.7637 29.6638 14.1667 31.1667 14.1667Z" fill="black"/>
</svg>
