<svg width="60" height="56" viewBox="0 0 60 56" fill="none" xmlns="http://www.w3.org/2000/svg">
<path d="M30 0.125C28.8728 0.125 27.7918 0.572767 26.9948 1.3698C26.1978 2.16683 25.75 3.24783 25.75 4.375C25.75 5.94325 26.6042 7.28837 27.875 8.02787V12.875H17.25C11.4062 12.875 6.625 17.6562 6.625 23.5V27.75H0.25V44.75H6.625V55.375H53.375V44.75H59.75V27.75H53.375V23.5C53.375 17.6562 48.5938 12.875 42.75 12.875H32.125V8.02787C33.3957 7.28837 34.25 5.94537 34.25 4.375C34.25 3.24783 33.8022 2.16683 33.0052 1.3698C32.2082 0.572767 31.1272 0.125 30 0.125ZM17.25 17.125H42.75C46.2945 17.125 49.125 19.9555 49.125 23.5V51.125H44.875V40.5H15.125V51.125H10.875V23.5C10.875 19.9555 13.7055 17.125 17.25 17.125ZM21.5 25.625C20.3728 25.625 19.2918 26.0728 18.4948 26.8698C17.6978 27.6668 17.25 28.7478 17.25 29.875C17.25 31.0022 17.6978 32.0832 18.4948 32.8802C19.2918 33.6772 20.3728 34.125 21.5 34.125C22.6272 34.125 23.7082 33.6772 24.5052 32.8802C25.3022 32.0832 25.75 31.0022 25.75 29.875C25.75 28.7478 25.3022 27.6668 24.5052 26.8698C23.7082 26.0728 22.6272 25.625 21.5 25.625ZM38.5 25.625C37.3728 25.625 36.2918 26.0728 35.4948 26.8698C34.6978 27.6668 34.25 28.7478 34.25 29.875C34.25 31.0022 34.6978 32.0832 35.4948 32.8802C36.2918 33.6772 37.3728 34.125 38.5 34.125C39.6272 34.125 40.7082 33.6772 41.5052 32.8802C42.3022 32.0832 42.75 31.0022 42.75 29.875C42.75 28.7478 42.3022 27.6668 41.5052 26.8698C40.7082 26.0728 39.6272 25.625 38.5 25.625ZM4.5 32H6.625V40.5H4.5V32ZM53.375 32H55.5V40.5H53.375V32ZM19.375 44.75H23.625V51.125H19.375V44.75ZM27.875 44.75H32.125V51.125H27.875V44.75ZM36.375 44.75H40.625V51.125H36.375V44.75Z" fill="black"/>
</svg>
