<svg width="212" height="265" viewBox="0 0 212 265" fill="none" xmlns="http://www.w3.org/2000/svg">
<path d="M46.375 0C53.4032 0 60.1436 2.79196 65.1133 7.76167C70.083 12.7314 72.875 19.4718 72.875 26.5C72.875 33.5282 70.083 40.2686 65.1133 45.2383C60.1436 50.208 53.4032 53 46.375 53C39.3468 53 32.6064 50.208 27.6367 45.2383C22.667 40.2686 19.875 33.5282 19.875 26.5C19.875 19.4718 22.667 12.7314 27.6367 7.76167C32.6064 2.79196 39.3468 0 46.375 0ZM26.5 66.25H66.25C73.2782 66.25 80.0186 69.042 84.9883 74.0117C89.958 78.9814 92.75 85.7218 92.75 92.75V165.625H72.875V265H19.875V165.625H0V92.75C0 85.7218 2.79196 78.9814 7.76167 74.0117C12.7314 69.042 19.4718 66.25 26.5 66.25ZM165.625 0C172.653 0 179.394 2.79196 184.363 7.76167C189.333 12.7314 192.125 19.4718 192.125 26.5C192.125 33.5282 189.333 40.2686 184.363 45.2383C179.394 50.208 172.653 53 165.625 53C158.597 53 151.856 50.208 146.887 45.2383C141.917 40.2686 139.125 33.5282 139.125 26.5C139.125 19.4718 141.917 12.7314 146.887 7.76167C151.856 2.79196 158.597 0 165.625 0ZM145.75 66.25H185.5C192.528 66.25 199.269 69.042 204.238 74.0117C209.208 78.9814 212 85.7218 212 92.75V165.625H192.125V265H139.125V165.625H119.25V92.75C119.25 85.7218 122.042 78.9814 127.012 74.0117C131.981 69.042 138.722 66.25 145.75 66.25Z" fill="white" fill-opacity="0.29"/>
</svg>
