<svg width="411" height="401" viewBox="0 0 411 401" fill="none" xmlns="http://www.w3.org/2000/svg">
<path d="M329.75 66.2715L34.2598 0.718233M329.75 66.2715L200.406 328.833M329.75 66.2715L410.393 230.57M329.75 66.2715L116.729 177.922M34.2598 0.718233L-114.943 321.412M34.2598 0.718233L116.729 177.922M-114.943 321.412L15.4539 377.175M-114.943 321.412L116.729 177.922M15.4539 377.175L200.406 328.833M15.4539 377.175L138.749 399.837M200.406 328.833L410.393 230.57M200.406 328.833L357.235 343.26M200.406 328.833L138.749 399.837M200.406 328.833L116.729 177.922M410.393 230.57L357.235 343.26M357.235 343.26L138.749 399.837" stroke="white" stroke-width="1.08518"/>
</svg>
