<svg width="342" height="340" viewBox="0 0 342 340" fill="none" xmlns="http://www.w3.org/2000/svg">
<path d="M183 0.0625C176.071 0.0625 169.426 2.81495 164.527 7.71434C159.627 12.6137 156.875 19.2587 156.875 26.1875C156.875 35.8276 162.126 44.0962 169.938 48.6419V78.4375H104.625C68.7031 78.4375 39.3125 107.828 39.3125 143.75V169.875H0.125V274.375H39.3125V339.688H326.688V274.375H365.875V169.875H326.688V143.75C326.688 107.828 297.297 78.4375 261.375 78.4375H196.062V48.6419C203.874 44.0962 209.125 35.8407 209.125 26.1875C209.125 19.2587 206.373 12.6137 201.473 7.71434C196.574 2.81495 189.929 0.0625 183 0.0625ZM104.625 104.562H261.375C283.163 104.562 300.562 121.962 300.562 143.75V313.562H274.438V248.25H91.5625V313.562H65.4375V143.75C65.4375 121.962 82.8368 104.562 104.625 104.562ZM130.75 156.812C123.821 156.812 117.176 159.565 112.277 164.464C107.377 169.364 104.625 176.009 104.625 182.938C104.625 189.866 107.377 196.511 112.277 201.411C117.176 206.31 123.821 209.062 130.75 209.062C137.679 209.062 144.324 206.31 149.223 201.411C154.123 196.511 156.875 189.866 156.875 182.938C156.875 176.009 154.123 169.364 149.223 164.464C144.324 159.565 137.679 156.812 130.75 156.812ZM235.25 156.812C228.321 156.812 221.676 159.565 216.777 164.464C211.877 169.364 209.125 176.009 209.125 182.938C209.125 189.866 211.877 196.511 216.777 201.411C221.676 206.31 228.321 209.062 235.25 209.062C242.179 209.062 248.824 206.31 253.723 201.411C258.623 196.511 261.375 189.866 261.375 182.938C261.375 176.009 258.623 169.364 253.723 164.464C248.824 159.565 242.179 156.812 235.25 156.812ZM26.25 196H39.3125V248.25H26.25V196ZM326.688 196H339.75V248.25H326.688V196ZM117.688 274.375H143.812V313.562H117.688V274.375ZM169.938 274.375H196.062V313.562H169.938V274.375ZM222.188 274.375H248.312V313.562H222.188V274.375Z" fill="white" fill-opacity="0.19"/>
</svg>
